# xmcd
#
# Track frame offsets:
#	150
#	16346
#	32437
#	45388
#	64804
#	81574
#	93866
#	105180
#	124163
#	148030
#	160155
#	173511
#	187907
#	209438
#	223504
#	238554
#	253310
#	274510
#
# Disc length: 3883 seconds
#
# Revision: 0
# Processed by: cddbd v1.5.2PL0 Copyright (c) Steve Scherf et al.
# Submitted via: EasyCDDAExtractor 16.0.6.1
#
DISCID=ed0f2912
DTITLE=Συλλογικός δίσκος - Αιγαίο 2 Τζιβαέρι
DYEAR=1900
DGENRE=Παραδοσιακή
TTITLE0=Άγνωστος - Τζιβαέρι [Κάλυμνος]
TTITLE1=Άγνωστος - Παριανός [Κάλυμνος]
TTITLE2=Άγνωστος - Πολίτισσα [Κάλυμνος]
TTITLE3=Χορωδία - Ήθελα νά 'χα δυό καρδιές [Αστυπάλαια]
TTITLE4=Χορωδία - Κυρά μου Πορταΐτισσα [Αστυπάλαια]
TTITLE5=Άνευ ερμηνευτού - Μαυρομάτα [Πάτμος]
TTITLE6=Άνευ ερμηνευτού - Σούστα Πάτμου [Πάτμος]
TTITLE7=Άγνωστος - Το μωρό μου [Κως]
TTITLE8=Άγνωστος - Ο σκοπός της αυγής [Κως]
TTITLE9=Άγνωστος - Μελαχροινό [Κως]
TTITLE10=Άνευ ερμηνευτού - Λέρικος [Λέρος]
TTITLE11=Άγνωστος - Μπαρμπα Θοδωρή [Λέρος]
TTITLE12=Άγνωστος - Ως και τα παραθύρια σου [Σαμοθράκη]
TTITLE13=Χορωδία - Ο Βασιλικός (Καλημέρα θεία)[Σαμοθράκη]
TTITLE14=Άνευ ερμηνευτού - Σμυρναίϊκο [Σαμοθράκη]
TTITLE15=Άγνωστος - Κόρη το μαξελλάρι σου [Κάρπαθος]
TTITLE16=Άγνωστος - Πάνω χορός [Κάρπαθος]
TTITLE17=Άγνωστος - Σούστα [Κάρπαθος]
EXTD=
EXTT0=
EXTT1=
EXTT2=
EXTT3=
EXTT4=
EXTT5=
EXTT6=
EXTT7=
EXTT8=
EXTT9=
EXTT10=
EXTT11=
EXTT12=
EXTT13=
EXTT14=
EXTT15=
EXTT16=
EXTT17=
PLAYORDER=
